<svg width="8" height="12" viewBox="0 0 8 12" fill="none" xmlns="http://www.w3.org/2000/svg">
<path d="M1.17 5.29001L5.41 1.05001C5.50296 0.956281 5.61356 0.881887 5.73542 0.831118C5.85728 0.780349 5.98798 0.754211 6.12 0.754211C6.25201 0.754211 6.38271 0.780349 6.50457 0.831118C6.62643 0.881887 6.73703 0.956281 6.83 1.05001C7.01625 1.23737 7.12079 1.49082 7.12079 1.75501C7.12079 2.0192 7.01625 2.27265 6.83 2.46001L3.29 6.00001L6.83 9.54001C7.01625 9.72737 7.12079 9.98082 7.12079 10.245C7.12079 10.5092 7.01625 10.7626 6.83 10.95C6.73656 11.0427 6.62574 11.116 6.5039 11.1658C6.38206 11.2155 6.2516 11.2408 6.12 11.24C5.98839 11.2408 5.85793 11.2155 5.73609 11.1658C5.61425 11.116 5.50344 11.0427 5.41 10.95L1.17 6.71001C1.07627 6.61705 1.00187 6.50645 0.951105 6.38459C0.900336 6.26273 0.874198 6.13202 0.874198 6.00001C0.874198 5.868 0.900336 5.73729 0.951105 5.61543C1.00187 5.49357 1.07627 5.38297 1.17 5.29001Z" fill="black"/>
</svg>
